<?xml version="1.0" encoding="utf-8"?>
<!-- Generator: Adobe Illustrator 16.0.0, SVG Export Plug-In . SVG Version: 6.00 Build 0)  -->
<!DOCTYPE svg PUBLIC "-//W3C//DTD SVG 1.1//EN" "http://www.w3.org/Graphics/SVG/1.1/DTD/svg11.dtd">
<svg version="1.1" id="Layer_1" xmlns="http://www.w3.org/2000/svg" xmlns:xlink="http://www.w3.org/1999/xlink" x="0px" y="0px"
	 width="612px" height="612px" viewBox="0 0 612 612" enable-background="new 0 0 612 612" xml:space="preserve">
<g id="Layer_2">
	<rect fill="#FFFFFF" width="612" height="612"/>
</g>
<g id="Layer_1_1_">
	<path fill="#354BE5" d="M355.543,411.269v33.372c0,8.535,5.66,16.037,13.865,18.382l79.29,22.653
		c24.837,7.097,43.371,27.856,47.618,53.336l8.455,50.728c1.941,11.652-7.044,22.26-18.856,22.26h-356.33
		c-11.813,0-20.8-10.608-18.857-22.26l8.456-50.728c4.246-25.479,22.78-46.239,47.618-53.336l79.291-22.653
		c8.208-2.346,13.865-9.848,13.865-18.382v-33.372H355.543z"/>
	<path fill="#9B7256" d="M307.75,535.53c40.396,0,74.094-28.642,81.919-66.721l-20.26-5.787
		c-8.207-2.346-13.864-9.848-13.864-18.382V411.27h-95.587v33.372c0,8.536-5.659,16.036-13.865,18.382l-20.26,5.787
		C233.657,506.891,267.355,535.53,307.75,535.53z"/>
	<path fill="#755743" d="M355.543,420.828l-26.286-9.56h-69.299v33.372c0,8.536-5.659,16.036-13.865,18.382l-20.26,5.787v0.003
		C306.412,507.239,355.543,420.828,355.543,420.828z"/>
	<path fill="#553732" d="M441.572,95.833c2.39-16.728,20.313-7.966,20.313-7.966c-11.948-62.131-136.608-8.762-136.608-8.762
		l11.551-11.949C278.778,34.448,206.192,87.47,206.192,87.47c-22.702-7.17-80.054,15.135-80.054,69.698
		c0,55.759,28.676,139.397,28.676,139.397h315.434c0,0,9.56-105.146,9.56-143.379S441.572,95.833,441.572,95.833z"/>
	<path fill="#64463C" d="M461.883,87.868c-39.429-49.386-112.911,11.551-112.911,11.551c38.235,2.987,34.054,48.39,34.054,48.39
		c-8.364-13.741-20.909-11.351-20.909-11.351c-1.793,43.611-31.066,86.028-46.799,93.595l0.799,66.512h154.132
		c0,0,9.56-105.145,9.56-143.379s-38.234-57.352-38.234-57.352C443.961,79.105,461.883,87.868,461.883,87.868z"/>
	<path fill="#9B7256" d="M451.13,277.448V191.42H164.371v86.028c-10.558,0-19.117,8.558-19.117,19.117v19.119
		c0,10.558,8.559,19.116,19.117,19.116c0.527,0,1.022-0.114,1.538-0.155c5.72,32.106,27.547,59.582,58.548,71.982l47.793,19.117
		c22.789,9.116,48.211,9.116,71,0l47.794-19.117c31.003-12.4,52.83-39.876,58.549-71.982c0.517,0.043,1.011,0.155,1.536,0.155
		c10.56,0,19.117-8.56,19.117-19.116v-19.119C470.247,286.006,461.688,277.448,451.13,277.448z"/>
	<path fill="#9B7256" d="M412.896,191.42H164.371v86.027c-10.558,0-19.117,8.558-19.117,19.117v19.116
		c0,10.559,8.559,19.117,19.117,19.117c0.527,0,1.022-0.113,1.538-0.154c5.72,32.106,27.547,59.584,58.548,71.981l47.793,19.117
		c10.788,4.315,22.168,6.517,33.578,6.746c-32.438-14.396-56.47-37.657-72.066-56.667c-14.009-17.077-21.599-38.461-21.599-60.551
		V245.12c0-9.913,7.574-18.31,17.461-19.022c15.709-1.133,30.237-6.003,39.891-6.003c28.676,0,66.91-9.559,124.263,9.559
		c37.389,12.462,47.794-9.559,47.794-9.559L412.896,191.42z"/>
	<path fill="#553732" d="M173.93,277.448c0,0,0-47.793,28.676-76.469c0,0,18.569,7.009,57.352,0c24.792-4.48,29.473,0,29.473,0
		s-1.992,19.715-29.473,28.676c0,0,28.675,19.117,57.352-9.559l-1.992,9.957c0,0,30.27,5.974,57.353-25.888
		c0,0,10.356-0.797,21.109,6.372c18.762,12.507,38.233,5.31,38.233,5.31s19.117,23.366,19.117,61.601h19.117V172.301H154.812
		v105.146L173.93,277.448L173.93,277.448L173.93,277.448z"/>
	<path fill="#64463C" d="M372.669,204.166c0,0,10.356-0.798,21.109,6.373c18.762,12.508,38.233,5.31,38.233,5.31
		s19.117,23.366,19.117,61.601h19.117V172.304H354.91c-10.075,28.898-28.299,52.318-39.59,57.75
		C315.316,230.053,345.586,236.027,372.669,204.166z"/>
	<g>
		<path fill="#5A4137" d="M241.538,315.684L241.538,315.684c-7.918,0-14.338-6.42-14.338-14.338v-9.559
			c0-7.918,6.42-14.338,14.338-14.338l0,0c7.918,0,14.338,6.419,14.338,14.338v9.559
			C255.876,309.264,249.456,315.684,241.538,315.684z"/>
		<path fill="#5A4137" d="M384.918,315.684L384.918,315.684c-7.918,0-14.338-6.42-14.338-14.338v-9.559
			c0-7.918,6.42-14.338,14.338-14.338l0,0c7.918,0,14.337,6.419,14.337,14.338v9.559
			C399.255,309.264,392.836,315.684,384.918,315.684z"/>
	</g>
	<g>
		<path fill="#00AA9A" d="M307.75,554.648c48.072,0,89.983-33.815,100.289-80.588l-18.359-5.245l-0.011-0.003
			c-7.825,38.076-41.522,66.719-81.919,66.719c-40.394,0-74.092-28.642-81.917-66.719l-0.011,0.003l-18.359,5.245
			C217.768,520.831,259.677,554.648,307.75,554.648z"/>
		<path fill="#00AA9A" d="M139.616,501.218c-10.561,9.866-17.965,22.981-20.433,37.796l-8.455,50.727
			c-1.942,11.652,7.043,22.26,18.856,22.26h53.902v-32.79c0-9.768-2.993-19.3-8.575-27.313L139.616,501.218z"/>
		<path fill="#00AA9A" d="M475.885,501.218c10.562,9.866,17.965,22.981,20.435,37.796l8.454,50.727
			c1.941,11.652-7.043,22.261-18.856,22.261h-53.901v-32.79c0-9.768,2.994-19.3,8.575-27.314L475.885,501.218z"/>
	</g>
	<g id="Layer_2_1_">
		<path fill="#FFFFFF" stroke="#2D2D2D" stroke-width="6" stroke-miterlimit="10" d="M294.103,314.934
			c0,6.071-5.162,10.994-11.527,10.994h-84.512c-6.366,0-11.527-4.923-11.527-10.994v-33.008c0-6.072,5.161-10.995,11.527-10.995
			h84.512c6.365,0,11.527,4.923,11.527,10.995V314.934z"/>
		<path fill="#FFFFFF" stroke="#2D2D2D" stroke-width="6" stroke-miterlimit="10" d="M437.956,314.934
			c0,6.071-5.163,10.994-11.527,10.994h-84.512c-6.366,0-11.527-4.923-11.527-10.994v-33.008c0-6.072,5.161-10.995,11.527-10.995
			h84.512c6.364,0,11.527,4.923,11.527,10.995V314.934L437.956,314.934z"/>
		<path fill="#FFFFFF" stroke="#2D2D2D" stroke-width="6" stroke-miterlimit="10" d="M330.389,284.309c0,0.231-1.741,0.42-3.89,0.42
			h-28.507c-2.147,0-3.889-0.188-3.889-0.42v-1.259c0-0.232,1.741-0.419,3.889-0.419h28.507c2.147,0,3.89,0.187,3.89,0.419V284.309z
			"/>
	</g>
</g>
</svg>
